# Normalised for Forge 1.7.10 by the MC OBJ Export Blockbench plugin
v 0.437500 -0.437500 0.375000
v 0.375000 -0.437500 -0.437500
v 0.437500 -0.500000 0.375000
v 0.375000 -0.500000 -0.437500
v -0.375000 -0.437500 0.437500
v -0.437500 -0.437500 -0.375000
v -0.375000 -0.500000 0.437500
v -0.437500 -0.500000 -0.375000
v -0.375000 -0.437500 -0.437500
v -0.375000 -0.500000 -0.437500
v -0.437500 -0.437500 0.375000
v -0.437500 -0.500000 0.375000
v -0.375000 -0.500000 0.375000
v -0.375000 -0.437500 0.375000
v -0.375000 -0.437500 -0.375000
v 0.437500 -0.437500 -0.375000
v 0.437500 -0.500000 -0.375000
v -0.375000 -0.500000 -0.375000
v 0.375000 -0.437500 -0.375000
v 0.375000 -0.437500 0.375000
v 0.375000 -0.437500 0.437500
v 0.375000 -0.500000 0.437500
v 0.375000 -0.500000 0.375000
v 0.375000 -0.500000 -0.375000
vt 0.000000 0.250000
vt 0.375000 0.250000
vt 0.375000 0.281250
vt 0.000000 0.281250
vt 0.375000 0.281250
vt 0.000000 0.281250
vt 0.000000 0.250000
vt 0.375000 0.250000
vt 0.031250 0.593750
vt 0.406250 0.593750
vt 0.406250 0.968750
vt 0.031250 0.968750
vt 0.500000 0.125000
vt 0.875000 0.125000
vt 0.875000 0.500000
vt 0.500000 0.500000
vt 0.000000 0.250000
vt 0.375000 0.250000
vt 0.375000 0.281250
vt 0.000000 0.281250
vt 0.375000 0.281250
vt 0.000000 0.281250
vt 0.000000 0.250000
vt 0.375000 0.250000
vt 0.031250 0.593750
vt 0.031250 0.968750
vt 0.000000 0.968750
vt 0.000000 0.593750
vt 0.375000 0.406250
vt 0.343750 0.406250
vt 0.343750 0.375000
vt 0.375000 0.375000
vt 0.468750 0.500000
vt 0.468750 0.125000
vt 0.500000 0.125000
vt 0.500000 0.500000
vt 0.375000 0.406250
vt 0.343750 0.406250
vt 0.343750 0.375000
vt 0.375000 0.375000
vt 0.500000 0.531250
vt 0.468750 0.500000
vt 0.500000 0.500000
vt 0.500000 0.500000
vt 0.875000 0.500000
vt 0.875000 0.531250
vt 0.500000 0.531250
vt 0.031250 0.562500
vt 0.406250 0.562500
vt 0.406250 0.593750
vt 0.031250 0.593750
vt 0.031250 0.593750
vt 0.000000 0.593750
vt 0.031250 0.562500
vt 0.000000 0.968750
vt 0.031250 0.968750
vt 0.031250 1.000000
vt 0.031250 0.968750
vt 0.406250 0.968750
vt 0.406250 1.000000
vt 0.031250 1.000000
vt 0.375000 0.406250
vt 0.343750 0.406250
vt 0.343750 0.375000
vt 0.375000 0.375000
vt 0.500000 0.093750
vt 0.875000 0.093750
vt 0.875000 0.125000
vt 0.500000 0.125000
vt 0.500000 0.093750
vt 0.500000 0.125000
vt 0.468750 0.125000
vt 0.406250 1.000000
vt 0.406250 0.968750
vt 0.437500 0.968750
vt 0.437500 0.968750
vt 0.406250 0.968750
vt 0.406250 0.593750
vt 0.437500 0.593750
vt 0.406250 0.593750
vt 0.406250 0.562500
vt 0.437500 0.593750
vt 0.375000 0.406250
vt 0.343750 0.406250
vt 0.343750 0.375000
vt 0.375000 0.375000
vt 0.906250 0.500000
vt 0.875000 0.531250
vt 0.875000 0.500000
vt 0.906250 0.500000
vt 0.875000 0.500000
vt 0.875000 0.125000
vt 0.906250 0.125000
vt 0.906250 0.125000
vt 0.875000 0.125000
vt 0.875000 0.093750
vn 1.000000 0.000000 0.000000
vn -1.000000 0.000000 0.000000
vn 0.000000 1.000000 0.000000
vn 0.000000 -1.000000 0.000000
vn 0.000000 0.000000 1.000000
vn 0.000000 0.000000 -1.000000
vn 0.000000 1.000000 0.000000
vn -0.707107 0.000000 -0.707107
vn 0.000000 -1.000000 0.000000
vn -0.707107 0.000000 0.707107
vn 0.000000 -1.000000 0.000000
vn 0.000000 -1.000000 0.000000
vn 0.000000 1.000000 0.000000
vn 0.000000 1.000000 0.000000
vn 0.000000 1.000000 0.000000
vn 0.000000 1.000000 0.000000
vn 0.707107 0.000000 -0.707107
vn 0.000000 -1.000000 0.000000
vn 0.000000 -1.000000 0.000000
vn 0.000000 1.000000 0.000000
vn 0.000000 1.000000 0.000000
vn 0.000000 1.000000 0.000000
vn 0.707107 0.000000 0.707107
vn 0.000000 -1.000000 0.000000
vn 0.000000 -1.000000 0.000000
vn 0.000000 -1.000000 0.000000
v 0.437500 -0.187500 0.375000
v 0.375000 -0.187500 -0.437500
v 0.437500 -0.250000 0.375000
v 0.375000 -0.250000 -0.437500
v -0.375000 -0.187500 0.437500
v -0.437500 -0.187500 -0.375000
v -0.375000 -0.250000 0.437500
v -0.437500 -0.250000 -0.375000
v -0.375000 -0.187500 -0.437500
v -0.375000 -0.250000 -0.437500
v -0.437500 -0.187500 0.375000
v -0.437500 -0.250000 0.375000
v -0.375000 -0.250000 0.375000
v -0.375000 -0.187500 0.375000
v -0.375000 -0.187500 -0.375000
v 0.437500 -0.187500 -0.375000
v 0.437500 -0.250000 -0.375000
v -0.375000 -0.250000 -0.375000
v 0.375000 -0.187500 -0.375000
v 0.375000 -0.187500 0.375000
v 0.375000 -0.187500 0.437500
v 0.375000 -0.250000 0.437500
v 0.375000 -0.250000 0.375000
v 0.375000 -0.250000 -0.375000
vt 0.000000 0.250000
vt 0.375000 0.250000
vt 0.375000 0.281250
vt 0.000000 0.281250
vt 0.375000 0.281250
vt 0.000000 0.281250
vt 0.000000 0.250000
vt 0.375000 0.250000
vt 0.500000 0.593750
vt 0.875000 0.593750
vt 0.875000 0.968750
vt 0.500000 0.968750
vt 0.500000 0.125000
vt 0.875000 0.125000
vt 0.875000 0.500000
vt 0.500000 0.500000
vt 0.000000 0.250000
vt 0.375000 0.250000
vt 0.375000 0.281250
vt 0.000000 0.281250
vt 0.375000 0.281250
vt 0.000000 0.281250
vt 0.000000 0.250000
vt 0.375000 0.250000
vt 0.500000 0.593750
vt 0.500000 0.968750
vt 0.468750 0.968750
vt 0.468750 0.593750
vt 0.375000 0.406250
vt 0.343750 0.406250
vt 0.343750 0.375000
vt 0.375000 0.375000
vt 0.468750 0.500000
vt 0.468750 0.125000
vt 0.500000 0.125000
vt 0.500000 0.500000
vt 0.375000 0.406250
vt 0.343750 0.406250
vt 0.343750 0.375000
vt 0.375000 0.375000
vt 0.500000 0.531250
vt 0.468750 0.500000
vt 0.500000 0.500000
vt 0.500000 0.500000
vt 0.875000 0.500000
vt 0.875000 0.531250
vt 0.500000 0.531250
vt 0.500000 0.562500
vt 0.875000 0.562500
vt 0.875000 0.593750
vt 0.500000 0.593750
vt 0.500000 0.593750
vt 0.468750 0.593750
vt 0.500000 0.562500
vt 0.468750 0.968750
vt 0.500000 0.968750
vt 0.500000 1.000000
vt 0.500000 0.968750
vt 0.875000 0.968750
vt 0.875000 1.000000
vt 0.500000 1.000000
vt 0.375000 0.406250
vt 0.343750 0.406250
vt 0.343750 0.375000
vt 0.375000 0.375000
vt 0.500000 0.093750
vt 0.875000 0.093750
vt 0.875000 0.125000
vt 0.500000 0.125000
vt 0.500000 0.093750
vt 0.500000 0.125000
vt 0.468750 0.125000
vt 0.875000 1.000000
vt 0.875000 0.968750
vt 0.906250 0.968750
vt 0.906250 0.968750
vt 0.875000 0.968750
vt 0.875000 0.593750
vt 0.906250 0.593750
vt 0.875000 0.593750
vt 0.875000 0.562500
vt 0.906250 0.593750
vt 0.375000 0.406250
vt 0.343750 0.406250
vt 0.343750 0.375000
vt 0.375000 0.375000
vt 0.906250 0.500000
vt 0.875000 0.531250
vt 0.875000 0.500000
vt 0.906250 0.500000
vt 0.875000 0.500000
vt 0.875000 0.125000
vt 0.906250 0.125000
vt 0.906250 0.125000
vt 0.875000 0.125000
vt 0.875000 0.093750
vn 1.000000 0.000000 0.000000
vn -1.000000 0.000000 0.000000
vn 0.000000 1.000000 0.000000
vn 0.000000 -1.000000 0.000000
vn 0.000000 0.000000 1.000000
vn 0.000000 0.000000 -1.000000
vn 0.000000 1.000000 0.000000
vn -0.707107 0.000000 -0.707107
vn 0.000000 -1.000000 0.000000
vn -0.707107 0.000000 0.707107
vn 0.000000 -1.000000 0.000000
vn 0.000000 -1.000000 0.000000
vn 0.000000 1.000000 0.000000
vn 0.000000 1.000000 0.000000
vn 0.000000 1.000000 0.000000
vn 0.000000 1.000000 0.000000
vn 0.707107 0.000000 -0.707107
vn 0.000000 -1.000000 0.000000
vn 0.000000 -1.000000 0.000000
vn 0.000000 1.000000 0.000000
vn 0.000000 1.000000 0.000000
vn 0.000000 1.000000 0.000000
vn 0.707107 0.000000 0.707107
vn 0.000000 -1.000000 0.000000
vn 0.000000 -1.000000 0.000000
vn 0.000000 -1.000000 0.000000
v 0.375000 -0.250000 0.312500
v 0.312500 -0.250000 -0.375000
v 0.375000 -0.437500 0.312500
v 0.312500 -0.437500 -0.375000
v -0.312500 -0.250000 0.375000
v -0.375000 -0.250000 -0.312500
v -0.312500 -0.437500 0.375000
v -0.375000 -0.437500 -0.312500
v 0.375000 -0.437500 -0.312500
v 0.375000 -0.250000 -0.312500
v -0.312500 -0.250000 -0.375000
v -0.312500 -0.437500 -0.375000
v -0.312500 -0.437500 -0.312500
v 0.312500 -0.250000 0.375000
v 0.312500 -0.437500 0.375000
v 0.312500 -0.437500 -0.312500
v -0.375000 -0.250000 0.312500
v -0.375000 -0.437500 0.312500
v -0.312500 -0.437500 0.312500
v 0.312500 -0.437500 0.312500
v -0.312500 -0.250000 -0.312500
v 0.312500 -0.250000 -0.312500
v 0.312500 -0.250000 0.312500
v -0.312500 -0.250000 0.312500
vt 0.387944 0.531250
vt 0.343750 0.531250
vt 0.343750 0.437500
vt 0.387944 0.437500
vt 0.531250 0.125000
vt 0.843750 0.125000
vt 0.843750 0.156250
vt 0.531250 0.156250
vt 0.000000 0.312500
vt 0.312500 0.312500
vt 0.312500 0.406250
vt 0.000000 0.406250
vt 0.312500 0.531250
vt 0.000000 0.531250
vt 0.000000 0.437500
vt 0.312500 0.437500
vt 0.000000 0.312500
vt 0.312500 0.312500
vt 0.312500 0.406250
vt 0.000000 0.406250
vt 0.843750 0.156250
vt 0.843750 0.468750
vt 0.531250 0.468750
vt 0.531250 0.156250
vt 0.312500 0.406250
vt 0.000000 0.406250
vt 0.000000 0.312500
vt 0.312500 0.312500
vt 0.387944 0.531250
vt 0.343750 0.531250
vt 0.343750 0.437500
vt 0.387944 0.437500
vt 0.500000 0.156250
vt 0.531250 0.125000
vt 0.531250 0.156250
vt 0.531250 0.156250
vt 0.531250 0.468750
vt 0.500000 0.468750
vt 0.500000 0.156250
vt 0.387944 0.531250
vt 0.343750 0.531250
vt 0.343750 0.437500
vt 0.387944 0.437500
vt 0.875000 0.156250
vt 0.875000 0.468750
vt 0.843750 0.468750
vt 0.843750 0.156250
vt 0.875000 0.156250
vt 0.843750 0.156250
vt 0.843750 0.125000
vt 0.387944 0.531250
vt 0.343750 0.531250
vt 0.343750 0.437500
vt 0.387944 0.437500
vt 0.531250 0.500000
vt 0.500000 0.468750
vt 0.531250 0.468750
vt 0.531250 0.500000
vt 0.531250 0.468750
vt 0.843750 0.468750
vt 0.843750 0.500000
vt 0.843750 0.500000
vt 0.843750 0.468750
vt 0.875000 0.468750
vt 0.531250 0.468750
vt 0.843750 0.468750
vt 0.843750 0.500000
vt 0.531250 0.500000
vt 0.531250 0.468750
vt 0.531250 0.156250
vt 0.843750 0.156250
vt 0.843750 0.468750
vt 0.500000 0.468750
vt 0.500000 0.156250
vt 0.531250 0.156250
vt 0.531250 0.468750
vt 0.531250 0.468750
vt 0.531250 0.500000
vt 0.500000 0.468750
vt 0.843750 0.500000
vt 0.843750 0.468750
vt 0.875000 0.468750
vt 0.843750 0.468750
vt 0.843750 0.156250
vt 0.875000 0.156250
vt 0.875000 0.468750
vt 0.875000 0.156250
vt 0.843750 0.156250
vt 0.843750 0.125000
vt 0.843750 0.125000
vt 0.843750 0.156250
vt 0.531250 0.156250
vt 0.531250 0.125000
vt 0.531250 0.156250
vt 0.500000 0.156250
vt 0.531250 0.125000
vn 0.707107 0.000000 -0.707107
vn 0.000000 -1.000000 0.000000
vn 0.000000 0.000000 1.000000
vn 0.000000 0.000000 -1.000000
vn -1.000000 0.000000 0.000000
vn 0.000000 -1.000000 0.000000
vn 1.000000 0.000000 0.000000
vn -0.707107 0.000000 -0.707107
vn 0.000000 -1.000000 0.000000
vn 0.000000 -1.000000 0.000000
vn 0.707107 0.000000 0.707107
vn 0.000000 -1.000000 0.000000
vn 0.000000 -1.000000 0.000000
vn -0.707107 0.000000 0.707107
vn 0.000000 -1.000000 0.000000
vn 0.000000 -1.000000 0.000000
vn 0.000000 -1.000000 0.000000
vn 0.000000 1.000000 0.000000
vn 0.000000 1.000000 0.000000
vn 0.000000 1.000000 0.000000
vn 0.000000 1.000000 0.000000
vn 0.000000 1.000000 0.000000
vn 0.000000 1.000000 0.000000
vn 0.000000 1.000000 0.000000
vn 0.000000 1.000000 0.000000
vn 0.000000 1.000000 0.000000
o cube
f 3/1/1 17/2/1 16/3/1
f 3/1/1 16/3/1 1/4/1
f 11/5/2 6/6/2 8/7/2
f 11/5/2 8/7/2 12/8/2
f 14/9/3 20/10/3 19/11/3
f 14/9/3 19/11/3 15/12/3
f 18/13/4 24/14/4 23/15/4
f 18/13/4 23/15/4 13/16/4
f 7/17/5 22/18/5 21/19/5
f 7/17/5 21/19/5 5/20/5
f 9/21/6 2/22/6 4/23/6
f 9/21/6 4/23/6 10/24/6
f 14/25/7 15/26/7 6/27/7
f 14/25/7 6/27/7 11/28/7
f 6/29/8 9/30/8 10/31/8
f 6/29/8 10/31/8 8/32/8
f 12/33/9 8/34/9 18/35/9
f 12/33/9 18/35/9 13/36/9
f 5/37/10 11/38/10 12/39/10
f 5/37/10 12/39/10 7/40/10
f 7/41/11 12/42/11 13/43/11
f 13/44/12 23/45/12 22/46/12
f 13/44/12 22/46/12 7/47/12
f 5/48/13 21/49/13 20/50/13
f 5/48/13 20/50/13 14/51/13
f 14/52/14 11/53/14 5/54/14
f 6/55/15 15/56/15 9/57/15
f 15/58/16 19/59/16 2/60/16
f 15/58/16 2/60/16 9/61/16
f 2/62/17 16/63/17 17/64/17
f 2/62/17 17/64/17 4/65/17
f 10/66/18 4/67/18 24/68/18
f 10/66/18 24/68/18 18/69/18
f 10/70/19 18/71/19 8/72/19
f 2/73/20 19/74/20 16/75/20
f 16/76/21 19/77/21 20/78/21
f 16/76/21 20/78/21 1/79/21
f 20/80/22 21/81/22 1/82/22
f 1/83/23 21/84/23 22/85/23
f 1/83/23 22/85/23 3/86/23
f 3/87/24 22/88/24 23/89/24
f 3/90/25 23/91/25 24/92/25
f 3/90/25 24/92/25 17/93/25
f 17/94/26 24/95/26 4/96/26
f 27/97/27 41/98/27 40/99/27
f 27/97/27 40/99/27 25/100/27
f 35/101/28 30/102/28 32/103/28
f 35/101/28 32/103/28 36/104/28
f 38/105/29 44/106/29 43/107/29
f 38/105/29 43/107/29 39/108/29
f 42/109/30 48/110/30 47/111/30
f 42/109/30 47/111/30 37/112/30
f 31/113/31 46/114/31 45/115/31
f 31/113/31 45/115/31 29/116/31
f 33/117/32 26/118/32 28/119/32
f 33/117/32 28/119/32 34/120/32
f 38/121/33 39/122/33 30/123/33
f 38/121/33 30/123/33 35/124/33
f 30/125/34 33/126/34 34/127/34
f 30/125/34 34/127/34 32/128/34
f 36/129/35 32/130/35 42/131/35
f 36/129/35 42/131/35 37/132/35
f 29/133/36 35/134/36 36/135/36
f 29/133/36 36/135/36 31/136/36
f 31/137/37 36/138/37 37/139/37
f 37/140/38 47/141/38 46/142/38
f 37/140/38 46/142/38 31/143/38
f 29/144/39 45/145/39 44/146/39
f 29/144/39 44/146/39 38/147/39
f 38/148/40 35/149/40 29/150/40
f 30/151/41 39/152/41 33/153/41
f 39/154/42 43/155/42 26/156/42
f 39/154/42 26/156/42 33/157/42
f 26/158/43 40/159/43 41/160/43
f 26/158/43 41/160/43 28/161/43
f 34/162/44 28/163/44 48/164/44
f 34/162/44 48/164/44 42/165/44
f 34/166/45 42/167/45 32/168/45
f 26/169/46 43/170/46 40/171/46
f 40/172/47 43/173/47 44/174/47
f 40/172/47 44/174/47 25/175/47
f 44/176/48 45/177/48 25/178/48
f 25/179/49 45/180/49 46/181/49
f 25/179/49 46/181/49 27/182/49
f 27/183/50 46/184/50 47/185/50
f 27/186/51 47/187/51 48/188/51
f 27/186/51 48/188/51 41/189/51
f 41/190/52 48/191/52 28/192/52
f 50/193/53 58/194/53 57/195/53
f 50/193/53 57/195/53 52/196/53
f 60/197/54 52/198/54 64/199/54
f 60/197/54 64/199/54 61/200/54
f 55/201/55 63/202/55 62/203/55
f 55/201/55 62/203/55 53/204/55
f 59/205/56 50/206/56 52/207/56
f 59/205/56 52/207/56 60/208/56
f 56/209/57 66/210/57 65/211/57
f 56/209/57 65/211/57 54/212/57
f 64/213/58 68/214/58 67/215/58
f 64/213/58 67/215/58 61/216/58
f 58/217/59 49/218/59 51/219/59
f 58/217/59 51/219/59 57/220/59
f 54/221/60 59/222/60 60/223/60
f 54/221/60 60/223/60 56/224/60
f 56/225/61 60/226/61 61/227/61
f 61/228/62 67/229/62 66/230/62
f 61/228/62 66/230/62 56/231/62
f 49/232/63 62/233/63 63/234/63
f 49/232/63 63/234/63 51/235/63
f 57/236/64 51/237/64 68/238/64
f 57/236/64 68/238/64 64/239/64
f 57/240/65 64/241/65 52/242/65
f 53/243/66 65/244/66 66/245/66
f 53/243/66 66/245/66 55/246/66
f 55/247/67 66/248/67 67/249/67
f 55/250/68 67/251/68 68/252/68
f 55/250/68 68/252/68 63/253/68
f 63/254/69 68/255/69 51/256/69
f 69/257/70 70/258/70 50/259/70
f 69/257/70 50/259/70 59/260/70
f 69/261/71 72/262/71 71/263/71
f 69/261/71 71/263/71 70/264/71
f 54/265/72 65/266/72 72/267/72
f 54/265/72 72/267/72 69/268/72
f 69/269/73 59/270/73 54/271/73
f 50/272/74 70/273/74 58/274/74
f 70/275/75 71/276/75 49/277/75
f 70/275/75 49/277/75 58/278/75
f 49/279/76 71/280/76 62/281/76
f 62/282/77 71/283/77 72/284/77
f 62/282/77 72/284/77 53/285/77
f 72/286/78 65/287/78 53/288/78
