# Made in Blockbench 4.8.3
mtllib model.mtl

o cube
v 0.25 0.5 0.25
v 0.25 0.5 -0.25
v 0.25 -0.1875 0.25
v 0.25 -0.1875 -0.25
v -0.25 0.5 -0.25
v -0.25 0.5 0.25
v -0.25 -0.1875 -0.25
v -0.25 -0.1875 0.25
vt 0 1
vt 0.25 1
vt 0.25 0.65625
vt 0 0.65625
vt 0.25 1
vt 0.5 1
vt 0.5 0.65625
vt 0.25 0.65625
vt 0 0.65625
vt 0.25 0.65625
vt 0.25 0.3125
vt 0 0.3125
vt 0.25 0.65625
vt 0.5 0.65625
vt 0.5 0.3125
vt 0.25 0.3125
vt 0.75 0.75
vt 0.5 0.75
vt 0.5 1
vt 0.75 1
vn 0 0 -1
vn 1 0 0
vn 0 0 1
vn -1 0 0
vn 0 1 0
usemtl m_a3bf305f-bc24-a9b6-0ab0-32c4d0667018
f 4/4/1 7/3/1 5/2/1 2/1/1
f 3/8/2 4/7/2 2/6/2 1/5/2
f 8/12/3 3/11/3 1/10/3 6/9/3
f 7/16/4 8/15/4 6/14/4 5/13/4
f 6/20/5 1/19/5 2/18/5 5/17/5